<svg width="395" height="141" viewBox="0 0 395 141" fill="none" xmlns="http://www.w3.org/2000/svg">
<path fill-rule="evenodd" clip-rule="evenodd" d="M133.268 34.7404L60.7809 68.2745L128.179 112.742C115.107 129.369 94.5804 140.082 71.5 140.082C32.0116 140.082 0 108.723 0 70.0408C0 31.3583 32.0116 0 71.5 0C97.8469 0 120.865 13.9597 133.268 34.7404Z" fill="#FFC700"/>
<path d="M148.1 97.7C145.6 97.7 143.417 97.1833 141.55 96.15C139.683 95.0833 138.217 93.6 137.15 91.7C136.117 89.7667 135.6 87.5333 135.6 85V84.4C135.6 81.8333 136.117 79.6 137.15 77.7C138.183 75.7667 139.617 74.2833 141.45 73.25C143.317 72.1833 145.467 71.65 147.9 71.65C150.267 71.65 152.333 72.1833 154.1 73.25C155.9 74.2833 157.3 75.7333 158.3 77.6C159.3 79.4667 159.8 81.65 159.8 84.15V86.1H140.85C140.917 88.2667 141.633 90 143 91.3C144.4 92.5667 146.133 93.2 148.2 93.2C150.133 93.2 151.583 92.7667 152.55 91.9C153.55 91.0333 154.317 90.0333 154.85 88.9L159.1 91.1C158.633 92.0333 157.95 93.0167 157.05 94.05C156.183 95.0833 155.033 95.95 153.6 96.65C152.167 97.35 150.333 97.7 148.1 97.7ZM140.9 82.15H154.55C154.417 80.2833 153.75 78.8333 152.55 77.8C151.35 76.7333 149.783 76.2 147.85 76.2C145.917 76.2 144.333 76.7333 143.1 77.8C141.9 78.8333 141.167 80.2833 140.9 82.15ZM165.999 97V72.35H171.049V75.25H171.849C172.249 74.2167 172.883 73.4667 173.749 73C174.649 72.5 175.749 72.25 177.049 72.25H179.999V76.9H176.849C175.183 76.9 173.816 77.3667 172.749 78.3C171.683 79.2 171.149 80.6 171.149 82.5V97H165.999ZM185.335 97V62H190.485V97H185.335ZM198.128 97V72.35H203.278V97H198.128ZM200.728 69C199.728 69 198.878 68.6833 198.178 68.05C197.511 67.3833 197.178 66.5333 197.178 65.5C197.178 64.4667 197.511 63.6333 198.178 63C198.878 62.3333 199.728 62 200.728 62C201.761 62 202.611 62.3333 203.278 63C203.945 63.6333 204.278 64.4667 204.278 65.5C204.278 66.5333 203.945 67.3833 203.278 68.05C202.611 68.6833 201.761 69 200.728 69ZM210.921 97V72.35H215.971V76.05H216.771C217.238 75.05 218.071 74.1167 219.271 73.25C220.471 72.3833 222.254 71.95 224.621 71.95C226.488 71.95 228.138 72.3667 229.571 73.2C231.038 74.0333 232.188 75.2167 233.021 76.75C233.854 78.25 234.271 80.0667 234.271 82.2V97H229.121V82.6C229.121 80.4667 228.588 78.9 227.521 77.9C226.454 76.8667 224.988 76.35 223.121 76.35C220.988 76.35 219.271 77.05 217.971 78.45C216.704 79.85 216.071 81.8833 216.071 84.55V97H210.921ZM252.977 97V92.2H257.677V66.8H252.977V62H270.727C272.827 62 274.66 62.3667 276.227 63.1C277.794 63.8 279.01 64.8167 279.877 66.15C280.777 67.45 281.227 69 281.227 70.8V71.3C281.227 72.9 280.927 74.2167 280.327 75.25C279.727 76.2833 278.994 77.0833 278.127 77.65C277.294 78.2167 276.494 78.6167 275.727 78.85V79.65C276.494 79.85 277.31 80.25 278.177 80.85C279.077 81.4167 279.827 82.2167 280.427 83.25C281.06 84.2833 281.377 85.6333 281.377 87.3V87.8C281.377 89.7333 280.927 91.3833 280.027 92.75C279.127 94.1167 277.877 95.1667 276.277 95.9C274.71 96.6333 272.894 97 270.827 97H252.977ZM263.127 92.1H270.177C271.977 92.1 273.394 91.6667 274.427 90.8C275.46 89.9333 275.977 88.7333 275.977 87.2V86.75C275.977 85.2167 275.46 84.0167 274.427 83.15C273.427 82.2833 272.01 81.85 270.177 81.85H263.127V92.1ZM263.127 76.9H270.177C271.877 76.9 273.244 76.4833 274.277 75.65C275.31 74.7833 275.827 73.6167 275.827 72.15V71.65C275.827 70.1833 275.31 69.0333 274.277 68.2C273.277 67.3333 271.91 66.9 270.177 66.9H263.127V76.9ZM287.581 97V72.35H292.731V97H287.581ZM290.181 69C289.181 69 288.331 68.6833 287.631 68.05C286.965 67.3833 286.631 66.5333 286.631 65.5C286.631 64.4667 286.965 63.6333 287.631 63C288.331 62.3333 289.181 62 290.181 62C291.215 62 292.065 62.3333 292.731 63C293.398 63.6333 293.731 64.4667 293.731 65.5C293.731 66.5333 293.398 67.3833 292.731 68.05C292.065 68.6833 291.215 69 290.181 69ZM309.624 97C308.124 97 306.924 96.55 306.024 95.65C305.158 94.75 304.724 93.55 304.724 92.05V76.7H297.924V72.35H304.724V64.2H309.874V72.35H317.224V76.7H309.874V91.15C309.874 92.15 310.341 92.65 311.274 92.65H316.424V97H309.624ZM333.696 97.7C331.196 97.7 329.012 97.1833 327.146 96.15C325.279 95.0833 323.812 93.6 322.746 91.7C321.712 89.7667 321.196 87.5333 321.196 85V84.4C321.196 81.8333 321.712 79.6 322.746 77.7C323.779 75.7667 325.212 74.2833 327.046 73.25C328.912 72.1833 331.062 71.65 333.496 71.65C335.862 71.65 337.929 72.1833 339.696 73.25C341.496 74.2833 342.896 75.7333 343.896 77.6C344.896 79.4667 345.396 81.65 345.396 84.15V86.1H326.446C326.512 88.2667 327.229 90 328.596 91.3C329.996 92.5667 331.729 93.2 333.796 93.2C335.729 93.2 337.179 92.7667 338.146 91.9C339.146 91.0333 339.912 90.0333 340.446 88.9L344.696 91.1C344.229 92.0333 343.546 93.0167 342.646 94.05C341.779 95.0833 340.629 95.95 339.196 96.65C337.762 97.35 335.929 97.7 333.696 97.7ZM326.496 82.15H340.146C340.012 80.2833 339.346 78.8333 338.146 77.8C336.946 76.7333 335.379 76.2 333.446 76.2C331.512 76.2 329.929 76.7333 328.696 77.8C327.496 78.8333 326.762 80.2833 326.496 82.15ZM361.695 97.7C358.562 97.7 355.962 97 353.895 95.6C351.828 94.2 350.562 92.0833 350.095 89.25L354.895 88.1C355.162 89.4667 355.612 90.55 356.245 91.35C356.878 92.15 357.662 92.7167 358.595 93.05C359.562 93.3833 360.595 93.55 361.695 93.55C363.328 93.55 364.578 93.2333 365.445 92.6C366.345 91.9667 366.795 91.15 366.795 90.15C366.795 89.15 366.378 88.4167 365.545 87.95C364.712 87.4833 363.478 87.1 361.845 86.8L360.145 86.5C358.478 86.2 356.962 85.7667 355.595 85.2C354.228 84.6333 353.145 83.85 352.345 82.85C351.545 81.85 351.145 80.5667 351.145 79C351.145 76.6667 352.012 74.8667 353.745 73.6C355.478 72.3 357.778 71.65 360.645 71.65C363.412 71.65 365.678 72.2833 367.445 73.55C369.245 74.7833 370.412 76.4667 370.945 78.6L366.145 79.95C365.845 78.45 365.212 77.4 364.245 76.8C363.278 76.1667 362.078 75.85 360.645 75.85C359.245 75.85 358.145 76.1167 357.345 76.65C356.545 77.15 356.145 77.8667 356.145 78.8C356.145 79.8 356.528 80.5333 357.295 81C358.095 81.4667 359.162 81.8167 360.495 82.05L362.245 82.35C364.012 82.65 365.628 83.0667 367.095 83.6C368.562 84.1333 369.712 84.9 370.545 85.9C371.412 86.9 371.845 88.2333 371.845 89.9C371.845 92.3667 370.928 94.2833 369.095 95.65C367.262 97.0167 364.795 97.7 361.695 97.7Z" fill="black"/>
<path d="M106.152 92.1109L104.292 87.6859L108.625 85.8648L98.7836 62.4489L94.4508 64.27L92.5909 59.845L108.954 52.9675C110.89 52.1538 112.723 51.7815 114.451 51.8505C116.166 51.8888 117.682 52.3546 118.998 53.248C120.331 54.0977 121.346 55.3523 122.044 57.0117L122.238 57.4726C122.858 58.9476 123.091 60.2777 122.938 61.4628C122.786 62.6479 122.42 63.6695 121.84 64.5277C121.291 65.373 120.709 66.0517 120.093 66.5639L120.403 67.3014C121.187 67.1887 122.095 67.241 123.126 67.4584C124.175 67.6321 125.177 68.079 126.13 68.7991C127.115 69.5063 127.93 70.6282 128.575 72.1646L128.769 72.6256C129.518 74.4079 129.743 76.1034 129.442 77.712C129.142 79.3206 128.397 80.7729 127.206 82.0689C126.046 83.352 124.513 84.3939 122.608 85.1947L106.152 92.1109ZM113.611 83.6609L120.11 80.9293C121.769 80.2319 122.908 79.2835 123.524 78.0841C124.141 76.8848 124.153 75.5783 123.558 74.1648L123.384 73.7499C122.79 72.3364 121.849 71.4303 120.56 71.0317C119.303 70.6202 117.829 70.7696 116.139 71.48L109.639 74.2116L113.611 83.6609ZM107.721 69.6483L114.221 66.9166C115.788 66.258 116.886 65.3443 117.516 64.1757C118.133 62.9763 118.157 61.7006 117.589 60.3485L117.395 59.8876C116.827 58.5355 115.905 57.6755 114.629 57.3076C113.372 56.8961 111.944 57.0262 110.346 57.6978L103.847 60.4294L107.721 69.6483Z" fill="black"/>
</svg>
