<svg width="318" height="77" viewBox="0 0 318 77" fill="none" xmlns="http://www.w3.org/2000/svg">
<path fill-rule="evenodd" clip-rule="evenodd" d="M72.3812 18.8683L33.0116 37.0815L69.6174 61.2331C62.5172 70.2634 51.3689 76.0817 38.8334 76.0817C17.3863 76.0817 0 59.0503 0 38.0409C0 17.0315 17.3863 0 38.8334 0C53.143 0 65.6449 7.58181 72.3812 18.8683Z" fill="#FFC700"/>
<path d="M113.375 58.0413C111.14 58.0413 109.187 57.5792 107.517 56.6551C105.848 55.7011 104.536 54.3744 103.582 52.6752C102.658 50.9461 102.196 48.9486 102.196 46.6829V46.1463C102.196 43.8508 102.658 41.8534 103.582 40.1541C104.506 38.425 105.788 37.0983 107.428 36.1742C109.097 35.2202 111.02 34.7432 113.197 34.7432C115.313 34.7432 117.162 35.2202 118.742 36.1742C120.352 37.0983 121.604 38.3952 122.498 40.0646C123.392 41.7341 123.84 43.6868 123.84 45.9227V47.6667H106.891C106.951 49.6045 107.592 51.1547 108.814 52.3174C110.066 53.4503 111.617 54.0167 113.465 54.0167C115.194 54.0167 116.491 53.6291 117.355 52.854C118.25 52.0789 118.935 51.1846 119.412 50.1709L123.213 52.1385C122.796 52.9733 122.185 53.8527 121.38 54.7769C120.605 55.7011 119.576 56.4762 118.294 57.1023C117.013 57.7283 115.373 58.0413 113.375 58.0413ZM106.936 44.134H119.144C119.025 42.4645 118.429 41.1677 117.355 40.2435C116.282 39.2895 114.881 38.8125 113.152 38.8125C111.423 38.8125 110.007 39.2895 108.904 40.2435C107.83 41.1677 107.175 42.4645 106.936 44.134ZM129.384 57.4153V35.3692H133.9V37.9629H134.616C134.974 37.0387 135.54 36.3679 136.315 35.9506C137.12 35.5034 138.104 35.2798 139.267 35.2798H141.905V39.4386H139.088C137.597 39.4386 136.375 39.8559 135.421 40.6907C134.467 41.4956 133.99 42.7477 133.99 44.447V57.4153H129.384ZM146.677 57.4153V26.1126H151.283V57.4153H146.677ZM158.119 57.4153V35.3692H162.725V57.4153H158.119ZM160.444 32.3731C159.55 32.3731 158.79 32.0899 158.164 31.5235C157.567 30.9272 157.269 30.167 157.269 29.2428C157.269 28.3187 157.567 27.5734 158.164 27.0069C158.79 26.4107 159.55 26.1126 160.444 26.1126C161.368 26.1126 162.129 26.4107 162.725 27.0069C163.321 27.5734 163.619 28.3187 163.619 29.2428C163.619 30.167 163.321 30.9272 162.725 31.5235C162.129 32.0899 161.368 32.3731 160.444 32.3731ZM169.56 57.4153V35.3692H174.077V38.6784H174.792C175.21 37.784 175.955 36.9493 177.028 36.1742C178.102 35.399 179.696 35.0115 181.813 35.0115C183.483 35.0115 184.958 35.3841 186.24 36.1294C187.552 36.8747 188.58 37.9331 189.326 39.3044C190.071 40.646 190.444 42.2707 190.444 44.1787V57.4153H185.838V44.5365C185.838 42.6285 185.361 41.2273 184.407 40.3329C183.453 39.4088 182.141 38.9467 180.472 38.9467C178.564 38.9467 177.028 39.5727 175.866 40.8248C174.733 42.077 174.166 43.8955 174.166 46.2805V57.4153H169.56ZM207.174 57.4153V53.1223H211.377V30.4055H207.174V26.1126H223.049C224.927 26.1126 226.566 26.4405 227.968 27.0964C229.369 27.7224 230.457 28.6317 231.232 29.8242C232.037 30.9868 232.439 32.3731 232.439 33.983V34.4301C232.439 35.8611 232.171 37.0387 231.634 37.9629C231.098 38.8871 230.442 39.6025 229.667 40.1094C228.922 40.6162 228.206 40.9739 227.52 41.1826V41.8981C228.206 42.077 228.936 42.4347 229.712 42.9713C230.516 43.4781 231.187 44.1936 231.724 45.1178C232.29 46.042 232.574 47.2494 232.574 48.74V49.1871C232.574 50.9162 232.171 52.3919 231.366 53.6142C230.561 54.8365 229.443 55.7756 228.012 56.4315C226.611 57.0873 224.986 57.4153 223.138 57.4153H207.174ZM216.251 53.0329H222.557C224.166 53.0329 225.434 52.6453 226.358 51.8702C227.282 51.0951 227.744 50.0219 227.744 48.6505V48.2481C227.744 46.8767 227.282 45.8035 226.358 45.0284C225.463 44.2532 224.196 43.8657 222.557 43.8657H216.251V53.0329ZM216.251 39.4386H222.557C224.077 39.4386 225.299 39.0659 226.224 38.3206C227.148 37.5455 227.61 36.5021 227.61 35.1904V34.7432C227.61 33.4314 227.148 32.4029 226.224 31.6576C225.329 30.8825 224.107 30.4949 222.557 30.4949H216.251V39.4386ZM238.122 57.4153V35.3692H242.728V57.4153H238.122ZM240.448 32.3731C239.553 32.3731 238.793 32.0899 238.167 31.5235C237.571 30.9272 237.273 30.167 237.273 29.2428C237.273 28.3187 237.571 27.5734 238.167 27.0069C238.793 26.4107 239.553 26.1126 240.448 26.1126C241.372 26.1126 242.132 26.4107 242.728 27.0069C243.325 27.5734 243.623 28.3187 243.623 29.2428C243.623 30.167 243.325 30.9272 242.728 31.5235C242.132 32.0899 241.372 32.3731 240.448 32.3731ZM257.837 57.4153C256.495 57.4153 255.422 57.0128 254.617 56.2079C253.842 55.403 253.454 54.3297 253.454 52.9882V39.2597H247.373V35.3692H253.454V28.0802H258.06V35.3692H264.634V39.2597H258.06V52.1833C258.06 53.0776 258.478 53.5248 259.313 53.5248H263.919V57.4153H257.837ZM279.365 58.0413C277.13 58.0413 275.177 57.5792 273.507 56.6551C271.838 55.7011 270.526 54.3744 269.572 52.6752C268.648 50.9461 268.186 48.9486 268.186 46.6829V46.1463C268.186 43.8508 268.648 41.8534 269.572 40.1541C270.496 38.425 271.778 37.0983 273.418 36.1742C275.087 35.2202 277.01 34.7432 279.187 34.7432C281.303 34.7432 283.152 35.2202 284.732 36.1742C286.342 37.0983 287.594 38.3952 288.488 40.0646C289.382 41.7341 289.83 43.6868 289.83 45.9227V47.6667H272.881C272.941 49.6045 273.582 51.1547 274.804 52.3174C276.056 53.4503 277.607 54.0167 279.455 54.0167C281.184 54.0167 282.481 53.6291 283.345 52.854C284.24 52.0789 284.925 51.1846 285.402 50.1709L289.203 52.1385C288.786 52.9733 288.175 53.8527 287.37 54.7769C286.595 55.7011 285.566 56.4762 284.284 57.1023C283.003 57.7283 281.363 58.0413 279.365 58.0413ZM272.926 44.134H285.134C285.015 42.4645 284.419 41.1677 283.345 40.2435C282.272 39.2895 280.871 38.8125 279.142 38.8125C277.413 38.8125 275.997 39.2895 274.894 40.2435C273.82 41.1677 273.165 42.4645 272.926 44.134ZM304.407 58.0413C301.605 58.0413 299.279 57.4153 297.431 56.1632C295.583 54.9111 294.45 53.018 294.032 50.484L298.325 49.4554C298.564 50.6777 298.966 51.6466 299.533 52.3621C300.099 53.0776 300.8 53.5844 301.634 53.8825C302.499 54.1807 303.423 54.3297 304.407 54.3297C305.868 54.3297 306.986 54.0465 307.761 53.4801C308.566 52.9137 308.968 52.1833 308.968 51.2889C308.968 50.3945 308.596 49.7387 307.85 49.3213C307.105 48.9039 306.002 48.5611 304.541 48.2928L303.021 48.0245C301.53 47.7562 300.174 47.3686 298.951 46.8618C297.729 46.355 296.76 45.6544 296.045 44.76C295.329 43.8657 294.971 42.7179 294.971 41.3167C294.971 39.2299 295.747 37.62 297.297 36.4872C298.847 35.3245 300.904 34.7432 303.468 34.7432C305.942 34.7432 307.97 35.3096 309.55 36.4425C311.159 37.5455 312.203 39.051 312.68 40.959L308.387 42.1664C308.119 40.8248 307.552 39.8858 306.688 39.3491C305.823 38.7827 304.75 38.4995 303.468 38.4995C302.216 38.4995 301.232 38.738 300.516 39.215C299.801 39.6622 299.443 40.3031 299.443 41.1379C299.443 42.0322 299.786 42.6881 300.472 43.1055C301.187 43.5228 302.141 43.8359 303.334 44.0446L304.899 44.3129C306.479 44.5812 307.925 44.9538 309.237 45.4308C310.548 45.9078 311.577 46.5935 312.322 47.4878C313.097 48.3822 313.485 49.5747 313.485 51.0653C313.485 53.2714 312.665 54.9856 311.025 56.2079C309.386 57.4302 307.179 58.0413 304.407 58.0413Z" fill="#054C69"/>
<path d="M74.1384 59.0137L72.475 55.0561L76.3502 53.4274L67.5482 32.4851L63.673 34.1138L62.0097 30.1562L76.6445 24.0052C78.376 23.2775 80.0146 22.9445 81.5605 23.0062C83.0948 23.0405 84.4502 23.4571 85.6268 24.2561C86.8194 25.0161 87.7275 26.1381 88.3513 27.6222L88.5246 28.0345C89.079 29.3537 89.2879 30.5432 89.1513 31.6031C89.0147 32.663 88.6873 33.5767 88.1691 34.3443C87.6784 35.1003 87.1574 35.7073 86.6061 36.1654L86.8834 36.825C87.5848 36.7242 88.3967 36.771 89.3192 36.9654C90.2577 37.1207 91.1533 37.5204 92.006 38.1645C92.8863 38.797 93.6152 39.8003 94.1928 41.1745L94.366 41.5867C95.036 43.1808 95.2368 44.6971 94.9683 46.1358C94.6999 47.5745 94.0331 48.8734 92.968 50.0325C91.9304 51.18 90.5597 52.1119 88.8557 52.8281L74.1384 59.0137ZM80.809 51.4563L86.6217 49.0133C88.1058 48.3895 89.1237 47.5413 89.6754 46.4686C90.227 45.396 90.2372 44.2275 89.7058 42.9633L89.5499 42.5923C89.0185 41.3281 88.1767 40.5177 87.0244 40.1612C85.8996 39.7932 84.5814 39.9268 83.0698 40.5621L77.257 43.0052L80.809 51.4563ZM75.5417 38.9239L81.3544 36.4809C82.7561 35.8918 83.7385 35.0746 84.3017 34.0294C84.8534 32.9568 84.8751 31.8158 84.3668 30.6066L84.1935 30.1943C83.6853 28.9851 82.8608 28.2159 81.72 27.8869C80.5952 27.5189 79.3182 27.6352 77.8891 28.2359L72.0764 30.6789L75.5417 38.9239Z" fill="#054C69"/>
</svg>
