<svg width="442" height="141" viewBox="0 0 442 141" fill="none" xmlns="http://www.w3.org/2000/svg">
<path fill-rule="evenodd" clip-rule="evenodd" d="M133.268 34.7404L60.7809 68.2745L128.179 112.742C115.107 129.369 94.5804 140.082 71.5 140.082C32.0116 140.082 0 108.723 0 70.0408C0 31.3583 32.0116 0 71.5 0C97.8469 0 120.865 13.9597 133.268 34.7404Z" fill="#FFC700" />
<path d="M168.12 100.84C165.12 100.84 162.5 100.22 160.26 98.98C158.02 97.7 156.26 95.92 154.98 93.64C153.74 91.32 153.12 88.64 153.12 85.6V84.88C153.12 81.8 153.74 79.12 154.98 76.84C156.22 74.52 157.94 72.74 160.14 71.5C162.38 70.22 164.96 69.58 167.88 69.58C170.72 69.58 173.2 70.22 175.32 71.5C177.48 72.74 179.16 74.48 180.36 76.72C181.56 78.96 182.16 81.58 182.16 84.58V86.92H159.42C159.5 89.52 160.36 91.6 162 93.16C163.68 94.68 165.76 95.44 168.24 95.44C170.56 95.44 172.3 94.92 173.46 93.88C174.66 92.84 175.58 91.64 176.22 90.28L181.32 92.92C180.76 94.04 179.94 95.22 178.86 96.46C177.82 97.7 176.44 98.74 174.72 99.58C173 100.42 170.8 100.84 168.12 100.84ZM159.48 82.18H175.86C175.7 79.94 174.9 78.2 173.46 76.96C172.02 75.68 170.14 75.04 167.82 75.04C165.5 75.04 163.6 75.68 162.12 76.96C160.68 78.2 159.8 79.94 159.48 82.18ZM189.599 100V70.42H195.659V73.9H196.619C197.099 72.66 197.859 71.76 198.899 71.2C199.979 70.6 201.299 70.3 202.859 70.3H206.399V75.88H202.619C200.619 75.88 198.979 76.44 197.699 77.56C196.419 78.64 195.779 80.32 195.779 82.6V100H189.599ZM212.802 100V58H218.982V100H212.802ZM228.154 100V70.42H234.334V100H228.154ZM231.274 66.4C230.074 66.4 229.054 66.02 228.214 65.26C227.414 64.46 227.014 63.44 227.014 62.2C227.014 60.96 227.414 59.96 228.214 59.2C229.054 58.4 230.074 58 231.274 58C232.514 58 233.534 58.4 234.334 59.2C235.134 59.96 235.534 60.96 235.534 62.2C235.534 63.44 235.134 64.46 234.334 65.26C233.534 66.02 232.514 66.4 231.274 66.4ZM243.505 100V70.42H249.565V74.86H250.525C251.085 73.66 252.085 72.54 253.525 71.5C254.965 70.46 257.105 69.94 259.945 69.94C262.185 69.94 264.165 70.44 265.885 71.44C267.645 72.44 269.025 73.86 270.025 75.7C271.025 77.5 271.525 79.68 271.525 82.24V100H265.345V82.72C265.345 80.16 264.705 78.28 263.425 77.08C262.145 75.84 260.385 75.22 258.145 75.22C255.585 75.22 253.525 76.06 251.965 77.74C250.445 79.42 249.685 81.86 249.685 85.06V100H243.505ZM293.972 100V94.24H299.612V63.76H293.972V58H315.272C317.792 58 319.992 58.44 321.872 59.32C323.752 60.16 325.212 61.38 326.252 62.98C327.332 64.54 327.872 66.4 327.872 68.56V69.16C327.872 71.08 327.512 72.66 326.792 73.9C326.072 75.14 325.192 76.1 324.152 76.78C323.152 77.46 322.192 77.94 321.272 78.22V79.18C322.192 79.42 323.172 79.9 324.212 80.62C325.292 81.3 326.192 82.26 326.912 83.5C327.672 84.74 328.052 86.36 328.052 88.36V88.96C328.052 91.28 327.512 93.26 326.432 94.9C325.352 96.54 323.852 97.8 321.932 98.68C320.052 99.56 317.872 100 315.392 100H293.972ZM306.152 94.12H314.612C316.772 94.12 318.472 93.6 319.712 92.56C320.952 91.52 321.572 90.08 321.572 88.24V87.7C321.572 85.86 320.952 84.42 319.712 83.38C318.512 82.34 316.812 81.82 314.612 81.82H306.152V94.12ZM306.152 75.88H314.612C316.652 75.88 318.292 75.38 319.532 74.38C320.772 73.34 321.392 71.94 321.392 70.18V69.58C321.392 67.82 320.772 66.44 319.532 65.44C318.332 64.4 316.692 63.88 314.612 63.88H306.152V75.88ZM335.498 100V70.42H341.678V100H335.498ZM338.618 66.4C337.418 66.4 336.398 66.02 335.558 65.26C334.758 64.46 334.358 63.44 334.358 62.2C334.358 60.96 334.758 59.96 335.558 59.2C336.398 58.4 337.418 58 338.618 58C339.858 58 340.878 58.4 341.678 59.2C342.478 59.96 342.878 60.96 342.878 62.2C342.878 63.44 342.478 64.46 341.678 65.26C340.878 66.02 339.858 66.4 338.618 66.4ZM361.949 100C360.149 100 358.709 99.46 357.629 98.38C356.589 97.3 356.069 95.86 356.069 94.06V75.64H347.909V70.42H356.069V60.64H362.249V70.42H371.069V75.64H362.249V92.98C362.249 94.18 362.809 94.78 363.929 94.78H370.109V100H361.949ZM390.835 100.84C387.835 100.84 385.215 100.22 382.975 98.98C380.735 97.7 378.975 95.92 377.695 93.64C376.455 91.32 375.835 88.64 375.835 85.6V84.88C375.835 81.8 376.455 79.12 377.695 76.84C378.935 74.52 380.655 72.74 382.855 71.5C385.095 70.22 387.675 69.58 390.595 69.58C393.435 69.58 395.915 70.22 398.035 71.5C400.195 72.74 401.875 74.48 403.075 76.72C404.275 78.96 404.875 81.58 404.875 84.58V86.92H382.135C382.215 89.52 383.075 91.6 384.715 93.16C386.395 94.68 388.475 95.44 390.955 95.44C393.275 95.44 395.015 94.92 396.175 93.88C397.375 92.84 398.295 91.64 398.935 90.28L404.035 92.92C403.475 94.04 402.655 95.22 401.575 96.46C400.535 97.7 399.155 98.74 397.435 99.58C395.715 100.42 393.515 100.84 390.835 100.84ZM382.195 82.18H398.575C398.415 79.94 397.615 78.2 396.175 76.96C394.735 75.68 392.855 75.04 390.535 75.04C388.215 75.04 386.315 75.68 384.835 76.96C383.395 78.2 382.515 79.94 382.195 82.18ZM424.434 100.84C420.674 100.84 417.554 100 415.074 98.32C412.594 96.64 411.074 94.1 410.514 90.7L416.274 89.32C416.594 90.96 417.134 92.26 417.894 93.22C418.654 94.18 419.594 94.86 420.714 95.26C421.874 95.66 423.114 95.86 424.434 95.86C426.394 95.86 427.894 95.48 428.934 94.72C430.014 93.96 430.554 92.98 430.554 91.78C430.554 90.58 430.054 89.7 429.054 89.14C428.054 88.58 426.574 88.12 424.614 87.76L422.574 87.4C420.574 87.04 418.754 86.52 417.114 85.84C415.474 85.16 414.174 84.22 413.214 83.02C412.254 81.82 411.774 80.28 411.774 78.4C411.774 75.6 412.814 73.44 414.894 71.92C416.974 70.36 419.734 69.58 423.174 69.58C426.494 69.58 429.214 70.34 431.334 71.86C433.494 73.34 434.894 75.36 435.534 77.92L429.774 79.54C429.414 77.74 428.654 76.48 427.494 75.76C426.334 75 424.894 74.62 423.174 74.62C421.494 74.62 420.174 74.94 419.214 75.58C418.254 76.18 417.774 77.04 417.774 78.16C417.774 79.36 418.234 80.24 419.154 80.8C420.114 81.36 421.394 81.78 422.994 82.06L425.094 82.42C427.214 82.78 429.154 83.28 430.914 83.92C432.674 84.56 434.054 85.48 435.054 86.68C436.094 87.88 436.614 89.48 436.614 91.48C436.614 94.44 435.514 96.74 433.314 98.38C431.114 100.02 428.154 100.84 424.434 100.84Z" fill="black"/>
<path d="M114.46 97.1477L112.228 91.8376L117.428 89.6523L105.618 61.5533L100.418 63.7386L98.1866 58.4285L117.823 50.1755C120.146 49.1991 122.345 48.7523 124.419 48.8351C126.477 48.8811 128.296 49.4401 129.875 50.5121C131.475 51.5318 132.693 53.0373 133.53 55.0285L133.763 55.5817C134.507 57.3517 134.787 58.9478 134.604 60.3699C134.42 61.792 133.981 63.018 133.286 64.0478C132.627 65.0622 131.928 65.8766 131.189 66.4912L131.561 67.3762C132.502 67.241 133.591 67.3038 134.829 67.5646C136.088 67.773 137.29 68.3093 138.434 69.1735C139.615 70.0221 140.593 71.3683 141.368 73.2121L141.6 73.7652C142.499 75.904 142.769 77.9386 142.408 79.8689C142.048 81.7993 141.154 83.5421 139.725 85.0972C138.332 86.6369 136.493 87.8872 134.207 88.8482L114.46 97.1477ZM123.41 87.0077L131.21 83.7297C133.201 82.8928 134.567 81.7547 135.307 80.3155C136.047 78.8763 136.061 77.3085 135.348 75.6123L135.138 75.1144C134.425 73.4182 133.296 72.3309 131.75 71.8526C130.241 71.3588 128.472 71.5381 126.444 72.3905L118.645 75.6685L123.41 87.0077ZM116.343 70.1925L124.142 66.9145C126.023 66.1241 127.341 65.0277 128.097 63.6254C128.837 62.1862 128.866 60.6553 128.184 59.0328L127.952 58.4796C127.27 56.8571 126.163 55.8252 124.633 55.3837C123.123 54.8899 121.41 55.046 119.493 55.8519L111.693 59.1299L116.343 70.1925Z" fill="black"/>
</svg>
