<svg width="426" height="103" viewBox="0 0 426 103" fill="none" xmlns="http://www.w3.org/2000/svg">
<path fill-rule="evenodd" clip-rule="evenodd" d="M97.1166 25.3163L44.2928 49.7536L93.4082 82.1588C83.8815 94.2749 68.9235 102.082 52.1042 102.082C23.3278 102.082 0 79.2299 0 51.0408C0 22.8518 23.3278 0 52.1042 0C71.3039 0 88.0782 10.1728 97.1166 25.3163Z" fill="#FFC700"/>
<path d="M152.12 77.84C149.12 77.84 146.5 77.22 144.26 75.98C142.02 74.7 140.26 72.92 138.98 70.64C137.74 68.32 137.12 65.64 137.12 62.6V61.88C137.12 58.8 137.74 56.12 138.98 53.84C140.22 51.52 141.94 49.74 144.14 48.5C146.38 47.22 148.96 46.58 151.88 46.58C154.72 46.58 157.2 47.22 159.32 48.5C161.48 49.74 163.16 51.48 164.36 53.72C165.56 55.96 166.16 58.58 166.16 61.58V63.92H143.42C143.5 66.52 144.36 68.6 146 70.16C147.68 71.68 149.76 72.44 152.24 72.44C154.56 72.44 156.3 71.92 157.46 70.88C158.66 69.84 159.58 68.64 160.22 67.28L165.32 69.92C164.76 71.04 163.94 72.22 162.86 73.46C161.82 74.7 160.44 75.74 158.72 76.58C157 77.42 154.8 77.84 152.12 77.84ZM143.48 59.18H159.86C159.7 56.94 158.9 55.2 157.46 53.96C156.02 52.68 154.14 52.04 151.82 52.04C149.5 52.04 147.6 52.68 146.12 53.96C144.68 55.2 143.8 56.94 143.48 59.18ZM173.599 77V47.42H179.659V50.9H180.619C181.099 49.66 181.859 48.76 182.899 48.2C183.979 47.6 185.299 47.3 186.859 47.3H190.399V52.88H186.619C184.619 52.88 182.979 53.44 181.699 54.56C180.419 55.64 179.779 57.32 179.779 59.6V77H173.599ZM196.802 77V35H202.982V77H196.802ZM212.154 77V47.42H218.334V77H212.154ZM215.274 43.4C214.074 43.4 213.054 43.02 212.214 42.26C211.414 41.46 211.014 40.44 211.014 39.2C211.014 37.96 211.414 36.96 212.214 36.2C213.054 35.4 214.074 35 215.274 35C216.514 35 217.534 35.4 218.334 36.2C219.134 36.96 219.534 37.96 219.534 39.2C219.534 40.44 219.134 41.46 218.334 42.26C217.534 43.02 216.514 43.4 215.274 43.4ZM227.505 77V47.42H233.565V51.86H234.525C235.085 50.66 236.085 49.54 237.525 48.5C238.965 47.46 241.105 46.94 243.945 46.94C246.185 46.94 248.165 47.44 249.885 48.44C251.645 49.44 253.025 50.86 254.025 52.7C255.025 54.5 255.525 56.68 255.525 59.24V77H249.345V59.72C249.345 57.16 248.705 55.28 247.425 54.08C246.145 52.84 244.385 52.22 242.145 52.22C239.585 52.22 237.525 53.06 235.965 54.74C234.445 56.42 233.685 58.86 233.685 62.06V77H227.505ZM277.972 77V71.24H283.612V40.76H277.972V35H299.272C301.792 35 303.992 35.44 305.872 36.32C307.752 37.16 309.212 38.38 310.252 39.98C311.332 41.54 311.872 43.4 311.872 45.56V46.16C311.872 48.08 311.512 49.66 310.792 50.9C310.072 52.14 309.192 53.1 308.152 53.78C307.152 54.46 306.192 54.94 305.272 55.22V56.18C306.192 56.42 307.172 56.9 308.212 57.62C309.292 58.3 310.192 59.26 310.912 60.5C311.672 61.74 312.052 63.36 312.052 65.36V65.96C312.052 68.28 311.512 70.26 310.432 71.9C309.352 73.54 307.852 74.8 305.932 75.68C304.052 76.56 301.872 77 299.392 77H277.972ZM290.152 71.12H298.612C300.772 71.12 302.472 70.6 303.712 69.56C304.952 68.52 305.572 67.08 305.572 65.24V64.7C305.572 62.86 304.952 61.42 303.712 60.38C302.512 59.34 300.812 58.82 298.612 58.82H290.152V71.12ZM290.152 52.88H298.612C300.652 52.88 302.292 52.38 303.532 51.38C304.772 50.34 305.392 48.94 305.392 47.18V46.58C305.392 44.82 304.772 43.44 303.532 42.44C302.332 41.4 300.692 40.88 298.612 40.88H290.152V52.88ZM319.498 77V47.42H325.678V77H319.498ZM322.618 43.4C321.418 43.4 320.398 43.02 319.558 42.26C318.758 41.46 318.358 40.44 318.358 39.2C318.358 37.96 318.758 36.96 319.558 36.2C320.398 35.4 321.418 35 322.618 35C323.858 35 324.878 35.4 325.678 36.2C326.478 36.96 326.878 37.96 326.878 39.2C326.878 40.44 326.478 41.46 325.678 42.26C324.878 43.02 323.858 43.4 322.618 43.4ZM345.949 77C344.149 77 342.709 76.46 341.629 75.38C340.589 74.3 340.069 72.86 340.069 71.06V52.64H331.909V47.42H340.069V37.64H346.249V47.42H355.069V52.64H346.249V69.98C346.249 71.18 346.809 71.78 347.929 71.78H354.109V77H345.949ZM374.835 77.84C371.835 77.84 369.215 77.22 366.975 75.98C364.735 74.7 362.975 72.92 361.695 70.64C360.455 68.32 359.835 65.64 359.835 62.6V61.88C359.835 58.8 360.455 56.12 361.695 53.84C362.935 51.52 364.655 49.74 366.855 48.5C369.095 47.22 371.675 46.58 374.595 46.58C377.435 46.58 379.915 47.22 382.035 48.5C384.195 49.74 385.875 51.48 387.075 53.72C388.275 55.96 388.875 58.58 388.875 61.58V63.92H366.135C366.215 66.52 367.075 68.6 368.715 70.16C370.395 71.68 372.475 72.44 374.955 72.44C377.275 72.44 379.015 71.92 380.175 70.88C381.375 69.84 382.295 68.64 382.935 67.28L388.035 69.92C387.475 71.04 386.655 72.22 385.575 73.46C384.535 74.7 383.155 75.74 381.435 76.58C379.715 77.42 377.515 77.84 374.835 77.84ZM366.195 59.18H382.575C382.415 56.94 381.615 55.2 380.175 53.96C378.735 52.68 376.855 52.04 374.535 52.04C372.215 52.04 370.315 52.68 368.835 53.96C367.395 55.2 366.515 56.94 366.195 59.18ZM408.434 77.84C404.674 77.84 401.554 77 399.074 75.32C396.594 73.64 395.074 71.1 394.514 67.7L400.274 66.32C400.594 67.96 401.134 69.26 401.894 70.22C402.654 71.18 403.594 71.86 404.714 72.26C405.874 72.66 407.114 72.86 408.434 72.86C410.394 72.86 411.894 72.48 412.934 71.72C414.014 70.96 414.554 69.98 414.554 68.78C414.554 67.58 414.054 66.7 413.054 66.14C412.054 65.58 410.574 65.12 408.614 64.76L406.574 64.4C404.574 64.04 402.754 63.52 401.114 62.84C399.474 62.16 398.174 61.22 397.214 60.02C396.254 58.82 395.774 57.28 395.774 55.4C395.774 52.6 396.814 50.44 398.894 48.92C400.974 47.36 403.734 46.58 407.174 46.58C410.494 46.58 413.214 47.34 415.334 48.86C417.494 50.34 418.894 52.36 419.534 54.92L413.774 56.54C413.414 54.74 412.654 53.48 411.494 52.76C410.334 52 408.894 51.62 407.174 51.62C405.494 51.62 404.174 51.94 403.214 52.58C402.254 53.18 401.774 54.04 401.774 55.16C401.774 56.36 402.234 57.24 403.154 57.8C404.114 58.36 405.394 58.78 406.994 59.06L409.094 59.42C411.214 59.78 413.154 60.28 414.914 60.92C416.674 61.56 418.054 62.48 419.054 63.68C420.094 64.88 420.614 66.48 420.614 68.48C420.614 71.44 419.514 73.74 417.314 75.38C415.114 77.02 412.154 77.84 408.434 77.84Z" fill="#054C69"/>
<path d="M99.4601 79.1477L97.2283 73.8376L102.428 71.6523L90.6178 43.5533L85.4184 45.7386L83.1866 40.4285L102.823 32.1755C105.146 31.1991 107.345 30.7523 109.419 30.8351C111.477 30.8811 113.296 31.4401 114.875 32.5121C116.475 33.5318 117.693 35.0373 118.53 37.0285L118.763 37.5817C119.507 39.3517 119.787 40.9478 119.604 42.3699C119.42 43.792 118.981 45.018 118.286 46.0478C117.627 47.0622 116.928 47.8766 116.189 48.4912L116.561 49.3762C117.502 49.241 118.591 49.3038 119.829 49.5646C121.088 49.773 122.29 50.3093 123.434 51.1735C124.615 52.0221 125.593 53.3683 126.368 55.2121L126.6 55.7652C127.499 57.904 127.769 59.9386 127.408 61.8689C127.048 63.7993 126.154 65.5421 124.725 67.0972C123.332 68.6369 121.493 69.8872 119.207 70.8482L99.4601 79.1477ZM108.41 69.0077L116.21 65.7297C118.201 64.8928 119.567 63.7547 120.307 62.3155C121.047 60.8763 121.061 59.3085 120.348 57.6123L120.138 57.1144C119.425 55.4182 118.296 54.3309 116.75 53.8526C115.241 53.3588 113.472 53.5381 111.444 54.3905L103.645 57.6685L108.41 69.0077ZM101.343 52.1925L109.142 48.9145C111.023 48.1241 112.341 47.0277 113.097 45.6254C113.837 44.1862 113.866 42.6553 113.184 41.0328L112.952 40.4796C112.27 38.8571 111.163 37.8252 109.633 37.3837C108.123 36.8899 106.41 37.046 104.493 37.8519L96.6935 41.1299L101.343 52.1925Z" fill="#054C69"/>
</svg>
